<?xml version="1.0" standalone="yes"?>
<svg xmlns="http://www.w3.org/2000/svg" width="500" height="500">
<path style="fill:#fefefe; stroke:none;" d="M237 115.424C214.133 118.428 193.481 125.138 174 137.861C160.017 146.993 148.48 158.915 139 172.576C102.393 225.323 108.348 300.269 154.039 345.961C170.424 362.345 191.731 374.316 214 380.572C232.158 385.673 252.354 386.472 271 383.792C288.742 381.241 306.861 374.216 322 364.68C335.103 356.426 346.968 346.296 356.472 334.001C397.595 280.798 393.84 201.918 345.961 154.039C330.12 138.199 310.288 127.145 289 120.634C272.546 115.602 254.216 113.163 237 115.424z"/>
<path style="fill:#393e46; stroke:none;" d="M245 156.533C233.977 159.213 228.467 175.152 223.201 184C206.698 211.724 190.682 239.852 174.909 268C168.985 278.57 156.826 292.778 166.569 304.895C174.569 314.845 193.716 311 205 311L287 311L311 311C315.518 311 320.614 311.63 325 310.362C341.336 305.638 337.398 288.917 330.989 278C312.283 246.135 294.123 213.957 275.576 182C268.655 170.076 261.991 152.403 245 156.533z"/>
<path style="fill:#fefefe; stroke:none;" d="M236 261L264 261L264 218C264 211.979 265.401 203.939 263.682 198.148C262.039 192.615 247.577 194.918 243.001 195.005C241.019 195.042 238.406 194.864 237.028 196.603C234.221 200.148 236 209.68 236 214L236 261M246.015 271.772C229.616 277.222 237.631 302.479 253.999 297.347C270.533 292.164 261.919 266.487 246.015 271.772z"/>
</svg>
